<mxfile host="app.diagrams.net" modified="2024-05-10T03:29:41.446Z" agent="Mozilla/5.0 (Windows NT 10.0; Win64; x64) AppleWebKit/537.36 (KHTML, like Gecko) Chrome/124.0.0.0 Safari/537.36" etag="WZPzCfMSVVHh9iGjgDU3" version="24.3.1" type="github">
  <diagram name="第 1 页" id="3ZTBjOKi6uMCx4f697i8">
    <mxGraphModel dx="1577" dy="379" grid="1" gridSize="10" guides="1" tooltips="1" connect="1" arrows="1" fold="1" page="1" pageScale="1" pageWidth="827" pageHeight="1169" math="0" shadow="0">
      <root>
        <mxCell id="0" />
        <mxCell id="1" parent="0" />
        <mxCell id="jWBbzzz8dNwmZsgEdaD3-3" value="" style="rounded=0;whiteSpace=wrap;html=1;fontStyle=1;container=0;fillColor=none;" vertex="1" parent="1">
          <mxGeometry x="-80" y="360" width="200" height="260" as="geometry" />
        </mxCell>
        <mxCell id="jWBbzzz8dNwmZsgEdaD3-44" value="&lt;span style=&quot;font-family: 宋体; font-size: 20px; font-weight: 700;&quot;&gt;小熊派&lt;/span&gt;&lt;span style=&quot;font-size: 20px; font-weight: 700;&quot;&gt;&lt;font face=&quot;Times New Roman&quot;&gt;Micro&lt;/font&gt;&lt;/span&gt;&lt;span style=&quot;font-family: 宋体; font-size: 20px; font-weight: 700;&quot;&gt;主控板&lt;/span&gt;" style="text;html=1;align=center;verticalAlign=middle;whiteSpace=wrap;rounded=0;" vertex="1" parent="1">
          <mxGeometry x="-71.66666666666667" y="369" width="183.33333333333334" height="30" as="geometry" />
        </mxCell>
        <mxCell id="jWBbzzz8dNwmZsgEdaD3-1" value="&lt;div&gt;&lt;span lang=&quot;EN-US&quot; style=&quot;&quot;&gt;&lt;font face=&quot;宋体&quot; style=&quot;font-size: 18px;&quot;&gt;芯片&lt;/font&gt;&lt;/span&gt;&lt;/div&gt;&lt;span lang=&quot;EN-US&quot; style=&quot;&quot;&gt;&lt;font face=&quot;Times New Roman&quot; style=&quot;font-size: 18px;&quot;&gt;STM32MP157AAC&lt;/font&gt;&lt;/span&gt;" style="rounded=0;whiteSpace=wrap;html=1;fontStyle=1;container=0;" vertex="1" parent="1">
          <mxGeometry x="-60" y="430" width="160" height="40" as="geometry" />
        </mxCell>
        <mxCell id="jWBbzzz8dNwmZsgEdaD3-5" value="&lt;font style=&quot;font-size: 18px;&quot;&gt;&lt;font face=&quot;Times New Roman&quot;&gt;LCD&lt;/font&gt;&lt;font face=&quot;宋体&quot;&gt;触摸屏&lt;/font&gt;&lt;/font&gt;" style="rounded=0;whiteSpace=wrap;html=1;fontStyle=1;container=0;" vertex="1" parent="1">
          <mxGeometry x="-60" y="520" width="160" height="40" as="geometry" />
        </mxCell>
        <mxCell id="jWBbzzz8dNwmZsgEdaD3-14" value="&lt;span style=&quot;font-size:12.0pt;font-family:&lt;br/&gt;&amp;quot;Times New Roman&amp;quot;,serif;mso-fareast-font-family:宋体;mso-bidi-theme-font:minor-bidi;&lt;br/&gt;mso-ansi-language:EN-US;mso-fareast-language:ZH-CN;mso-bidi-language:AR-SA&quot; lang=&quot;EN-US&quot;&gt;&lt;font face=&quot;Times New Roman&quot;&gt;SHT30&lt;/font&gt;&lt;/span&gt;&lt;div&gt;&lt;span style=&quot;font-size:12.0pt;font-family:宋体;mso-ascii-font-family:&amp;quot;Times New Roman&amp;quot;;&lt;br/&gt;mso-hansi-font-family:&amp;quot;Times New Roman&amp;quot;;mso-bidi-font-family:&amp;quot;Times New Roman&amp;quot;;&lt;br/&gt;mso-bidi-theme-font:minor-bidi;mso-ansi-language:EN-US;mso-fareast-language:&lt;br/&gt;ZH-CN;mso-bidi-language:AR-SA&quot;&gt;温湿度传感器&lt;/span&gt;&lt;/div&gt;" style="rounded=0;whiteSpace=wrap;html=1;fontStyle=1;container=0;" vertex="1" parent="1">
          <mxGeometry x="181.67" y="460" width="160" height="40" as="geometry" />
        </mxCell>
        <mxCell id="jWBbzzz8dNwmZsgEdaD3-16" value="&lt;span style=&quot;font-size: 12pt;&quot; lang=&quot;EN-US&quot;&gt;&lt;font face=&quot;Times New Roman&quot;&gt;BH1750&lt;/font&gt;&lt;/span&gt;&lt;div&gt;&lt;span style=&quot;font-size:12.0pt;font-family:宋体;mso-ascii-font-family:&amp;quot;Times New Roman&amp;quot;;&lt;br/&gt;mso-hansi-font-family:&amp;quot;Times New Roman&amp;quot;;mso-bidi-font-family:&amp;quot;Times New Roman&amp;quot;;&lt;br/&gt;mso-bidi-theme-font:minor-bidi;mso-ansi-language:EN-US;mso-fareast-language:&lt;br/&gt;ZH-CN;mso-bidi-language:AR-SA&quot;&gt;光照强度传感器&lt;/span&gt;&lt;br&gt;&lt;/div&gt;" style="rounded=0;whiteSpace=wrap;html=1;fontStyle=1;container=0;" vertex="1" parent="1">
          <mxGeometry x="181.67" y="410" width="160" height="40" as="geometry" />
        </mxCell>
        <mxCell id="jWBbzzz8dNwmZsgEdaD3-11" value="&lt;font style=&quot;font-size: 18px;&quot; face=&quot;Times New Roman&quot;&gt;LED&lt;/font&gt;&lt;font style=&quot;font-size: 18px;&quot; face=&quot;宋体&quot;&gt;灯&lt;/font&gt;" style="rounded=0;whiteSpace=wrap;html=1;fontStyle=1;container=0;" vertex="1" parent="1">
          <mxGeometry x="180" y="520" width="160" height="40" as="geometry" />
        </mxCell>
        <mxCell id="jWBbzzz8dNwmZsgEdaD3-12" value="&lt;span style=&quot;font-size: 18px;&quot;&gt;&lt;font face=&quot;宋体&quot;&gt;风扇&lt;/font&gt;&lt;/span&gt;" style="rounded=0;whiteSpace=wrap;html=1;fontStyle=1;container=0;" vertex="1" parent="1">
          <mxGeometry x="180" y="570" width="160" height="40" as="geometry" />
        </mxCell>
        <mxCell id="jWBbzzz8dNwmZsgEdaD3-50" value="" style="group" vertex="1" connectable="0" parent="1">
          <mxGeometry x="160" y="360" width="261.66666666666663" height="260" as="geometry" />
        </mxCell>
        <mxCell id="jWBbzzz8dNwmZsgEdaD3-53" value="" style="group" vertex="1" connectable="0" parent="jWBbzzz8dNwmZsgEdaD3-50">
          <mxGeometry width="261.66666666666663" height="260" as="geometry" />
        </mxCell>
        <mxCell id="jWBbzzz8dNwmZsgEdaD3-51" value="" style="endArrow=none;html=1;rounded=0;entryX=1;entryY=0.576;entryDx=0;entryDy=0;entryPerimeter=0;exitX=0.002;exitY=0.576;exitDx=0;exitDy=0;exitPerimeter=0;" edge="1" parent="jWBbzzz8dNwmZsgEdaD3-53">
          <mxGeometry width="50" height="50" relative="1" as="geometry">
            <mxPoint y="40" as="sourcePoint" />
            <mxPoint x="200" y="40" as="targetPoint" />
          </mxGeometry>
        </mxCell>
        <mxCell id="jWBbzzz8dNwmZsgEdaD3-47" value="&lt;span style=&quot;font-size: 20px;&quot;&gt;&lt;b style=&quot;&quot;&gt;&lt;font face=&quot;Times New Roman&quot;&gt;E53-IA1&lt;/font&gt;&lt;font face=&quot;宋体&quot;&gt;扩展模块&lt;/font&gt;&lt;/b&gt;&lt;/span&gt;" style="text;html=1;align=center;verticalAlign=middle;whiteSpace=wrap;rounded=0;" vertex="1" parent="jWBbzzz8dNwmZsgEdaD3-53">
          <mxGeometry x="8.333333333333314" y="9" width="183.33333333333334" height="30" as="geometry" />
        </mxCell>
        <mxCell id="jWBbzzz8dNwmZsgEdaD3-10" value="" style="rounded=0;whiteSpace=wrap;html=1;fontStyle=1;fillColor=none;" vertex="1" parent="jWBbzzz8dNwmZsgEdaD3-53">
          <mxGeometry width="200" height="260" as="geometry" />
        </mxCell>
        <mxCell id="jWBbzzz8dNwmZsgEdaD3-49" value="" style="endArrow=none;html=1;rounded=0;entryX=1;entryY=0.576;entryDx=0;entryDy=0;entryPerimeter=0;exitX=0.002;exitY=0.576;exitDx=0;exitDy=0;exitPerimeter=0;" edge="1" parent="jWBbzzz8dNwmZsgEdaD3-53" source="jWBbzzz8dNwmZsgEdaD3-10" target="jWBbzzz8dNwmZsgEdaD3-10">
          <mxGeometry width="50" height="50" relative="1" as="geometry">
            <mxPoint x="-10" y="130" as="sourcePoint" />
            <mxPoint x="240" y="160" as="targetPoint" />
          </mxGeometry>
        </mxCell>
        <mxCell id="jWBbzzz8dNwmZsgEdaD3-52" value="" style="endArrow=none;html=1;rounded=0;entryX=1;entryY=0.576;entryDx=0;entryDy=0;entryPerimeter=0;exitX=0.002;exitY=0.576;exitDx=0;exitDy=0;exitPerimeter=0;" edge="1" parent="1">
          <mxGeometry width="50" height="50" relative="1" as="geometry">
            <mxPoint x="-80" y="400" as="sourcePoint" />
            <mxPoint x="120" y="400" as="targetPoint" />
          </mxGeometry>
        </mxCell>
      </root>
    </mxGraphModel>
  </diagram>
</mxfile>
